<svg id="Layer_1" data-name="Layer 1" xmlns="http://www.w3.org/2000/svg" viewBox="0 0 706.32 763.63"><title>favicon</title><polygon points="343.46 354.45 420.88 438.35 619.28 438.35 619.28 457.79 95 457.79 95 438.35 398.19 438.35 313.57 351.93 95 134.43 95 106.35 330.13 340.04 619.28 88.34 619.28 113.55 343.46 354.45"/><path d="M774.49,584.35h-541V548.16H525.11L454.42,476l-221-219.87V204.4L477.35,446.8,774.49,188.14v47.4L502.28,473.28l69.1,74.88H774.49ZM250.21,567.6H757.75v-2.69H250.21Zm0-318.46,216.1,215,83,84.74L478.3,472,757.75,227.93v-3L476.59,469.66l-226.38-225Z" transform="translate(-146.84 -118.19)"/><polygon points="113.85 26.81 26.81 26.81 26.81 736.82 113.85 736.82 113.85 757.34 6.28 757.34 6.28 6.28 113.85 6.28 113.85 26.81"/><path d="M267,881.81H146.84V118.19H267v33.08H179.92V848.73H267ZM159.4,869.25h95v-8h-87V138.71h87v-8h-95Z" transform="translate(-146.84 -118.19)"/><polygon points="592.48 736.82 679.52 736.82 679.52 26.81 592.48 26.81 592.48 6.28 700.04 6.28 700.04 757.34 592.48 757.34 592.48 736.82"/><path d="M853.16,881.81H733V848.73h87.05V151.27H733V118.19H853.16ZM745.6,869.25h95V130.75h-95v8h87V861.29h-87Z" transform="translate(-146.84 -118.19)"/></svg>