<svg id="Layer_1" data-name="Layer 1" xmlns="http://www.w3.org/2000/svg" viewBox="0 0 955.88 85.62"><title>logo</title><path d="M22.06,439.6H36l25.84,66.52h.45L88.13,439.6h13.94v81.14H92.55V469.18L93,453.77h-.45L66,520.74H58.1l-26.52-67h-.45l.45,15.41v51.56H22.06Z" transform="translate(-22.06 -439.38)"/><path d="M123.71,520.06a18.65,18.65,0,0,1-7.7-6.86,18.26,18.26,0,0,1-2.72-9.91q0-9.18,6.91-14.34t17.45-5.15a39.74,39.74,0,0,1,9.69,1.13,24.85,24.85,0,0,1,6.85,2.61V484a13,13,0,0,0-4.53-10.37,16.93,16.93,0,0,0-11.44-3.91,19.3,19.3,0,0,0-9,2.1,16.36,16.36,0,0,0-6.46,5.84l-7.25-5.44a23.1,23.1,0,0,1,9.35-8.16,29.41,29.41,0,0,1,13.2-2.95q11.79,0,18.53,6.18t6.74,16.83v36.6h-9.18v-8.27h-.45a20.7,20.7,0,0,1-7.48,7.14A21.65,21.65,0,0,1,135,522.55,25,25,0,0,1,123.71,520.06Zm21.31-8.5a18.86,18.86,0,0,0,6.68-6.69,17.61,17.61,0,0,0,2.49-9.17,23.57,23.57,0,0,0-6.68-2.95,30.26,30.26,0,0,0-8.39-1.13q-7.94,0-12,3.28a10.46,10.46,0,0,0-4,8.5,9.47,9.47,0,0,0,3.63,7.71,14.12,14.12,0,0,0,9.18,2.94A17.47,17.47,0,0,0,145,511.56Z" transform="translate(-22.06 -439.38)"/><path d="M176.74,463h9.18v8.49h.46a19.41,19.41,0,0,1,7.59-7.31,21.91,21.91,0,0,1,11.11-3q10.41,0,15.92,6.06t5.49,16.49v37.06h-9.63V485.16q0-8.06-3.85-11.68t-10.54-3.62a14.1,14.1,0,0,0-8.33,2.6,17.52,17.52,0,0,0-5.72,6.86,20.31,20.31,0,0,0-2,8.9v32.52h-9.64Z" transform="translate(-22.06 -439.38)"/><path d="M245.36,516.43q-5.51-6.12-5.5-17.11V463h9.64v34.9c0,5.51,1.24,9.56,3.74,12.12s5.85,3.86,10.08,3.86a14.93,14.93,0,0,0,8.67-2.61,17.72,17.72,0,0,0,5.89-6.8,19.46,19.46,0,0,0,2.1-8.84V463h9.63v57.79h-9.18v-8.39H280a19.11,19.11,0,0,1-7.59,7.26,22.28,22.28,0,0,1-11.11,2.94Q250.86,522.55,245.36,516.43Z" transform="translate(-22.06 -439.38)"/><path d="M352.28,520.06a18.68,18.68,0,0,1-7.71-6.86,18.35,18.35,0,0,1-2.72-9.91q0-9.18,6.92-14.34t17.45-5.15a39.74,39.74,0,0,1,9.69,1.13,24.85,24.85,0,0,1,6.85,2.61V484a13,13,0,0,0-4.53-10.37,16.94,16.94,0,0,0-11.45-3.91,19.26,19.26,0,0,0-8.95,2.1,16.36,16.36,0,0,0-6.46,5.84l-7.25-5.44a23.1,23.1,0,0,1,9.35-8.16,29.35,29.35,0,0,1,13.2-2.95q11.79,0,18.53,6.18t6.74,16.83v36.6h-9.18v-8.27h-.45a20.78,20.78,0,0,1-7.48,7.14,21.7,21.7,0,0,1-11.22,2.94A25,25,0,0,1,352.28,520.06Zm21.3-8.5a18.81,18.81,0,0,0,6.69-6.69,17.61,17.61,0,0,0,2.49-9.17,23.57,23.57,0,0,0-6.68-2.95,30.26,30.26,0,0,0-8.39-1.13q-7.94,0-12,3.28a10.48,10.48,0,0,0-4,8.5,9.47,9.47,0,0,0,3.63,7.71,14.08,14.08,0,0,0,9.18,2.94A17.43,17.43,0,0,0,373.58,511.56Z" transform="translate(-22.06 -439.38)"/><path d="M405.31,439.6h9.63v51L442.14,463h12.24v.45l-22.66,22.89,23.23,34v.45H443.5L424.92,493l-10,10v17.79h-9.63Z" transform="translate(-22.06 -439.38)"/><path d="M509.06,516.43q-5.51-6.12-5.5-17.11V463h9.63v34.9c0,5.51,1.25,9.56,3.74,12.12s5.86,3.86,10.09,3.86a14.93,14.93,0,0,0,8.67-2.61,17.72,17.72,0,0,0,5.89-6.8,19.46,19.46,0,0,0,2.1-8.84V463h9.63v57.79h-9.18v-8.39h-.45a19.07,19.07,0,0,1-7.6,7.26,22.22,22.22,0,0,1-11.1,2.94Q514.55,522.55,509.06,516.43Z" transform="translate(-22.06 -439.38)"/><path d="M567.59,463h9.18v9.29h.45a15.5,15.5,0,0,1,6.57-7.88,18.63,18.63,0,0,1,10.2-3.11,18.23,18.23,0,0,1,6.8,1.13V472.8a18.12,18.12,0,0,0-8.16-1.81,13.45,13.45,0,0,0-7.71,2.38,17.09,17.09,0,0,0-5.6,6.4,18.51,18.51,0,0,0-2.1,8.67v32.3h-9.63Z" transform="translate(-22.06 -439.38)"/><path d="M615,520.06a18.62,18.62,0,0,1-7.71-6.86,18.35,18.35,0,0,1-2.72-9.91q0-9.18,6.91-14.34t17.45-5.15a39.63,39.63,0,0,1,9.69,1.13,24.93,24.93,0,0,1,6.86,2.61V484a13,13,0,0,0-4.53-10.37,17,17,0,0,0-11.45-3.91,19.26,19.26,0,0,0-9,2.1,16.36,16.36,0,0,0-6.46,5.84l-7.25-5.44a23,23,0,0,1,9.35-8.16,29.35,29.35,0,0,1,13.2-2.95q11.77,0,18.53,6.18t6.74,16.83v36.6h-9.18v-8.27H645a20.86,20.86,0,0,1-7.48,7.14,21.7,21.7,0,0,1-11.22,2.94A25,25,0,0,1,615,520.06Zm21.3-8.5a19,19,0,0,0,6.69-6.69,17.61,17.61,0,0,0,2.49-9.17,23.51,23.51,0,0,0-6.69-2.95,30.18,30.18,0,0,0-8.38-1.13q-7.93,0-12,3.28a10.48,10.48,0,0,0-4,8.5,9.49,9.49,0,0,0,3.62,7.71,14.12,14.12,0,0,0,9.18,2.94A17.47,17.47,0,0,0,636.26,511.56Z" transform="translate(-22.06 -439.38)"/><path d="M696.2,439.6h9.52v42.72h.46l36.6-42.72h12.35v.45l-30,34.68,32.19,45.56v.45H745.61l-27-38.64-12.92,14.84v23.8H696.2Z" transform="translate(-22.06 -439.38)"/><path d="M774.17,518.47a28.54,28.54,0,0,1-10.59-11.1,33.61,33.61,0,0,1,0-31.05,28.5,28.5,0,0,1,10.59-11.11,30.73,30.73,0,0,1,30.6,0,28.5,28.5,0,0,1,10.59,11.11,33.61,33.61,0,0,1,0,31.05,28.54,28.54,0,0,1-10.59,11.1,30.73,30.73,0,0,1-30.6,0Zm25.22-7.31a19.59,19.59,0,0,0,7.36-7.65,25.88,25.88,0,0,0,0-23.34,19.72,19.72,0,0,0-7.36-7.65,19.49,19.49,0,0,0-9.92-2.66,19.66,19.66,0,0,0-17.39,10.31,25.88,25.88,0,0,0,0,23.34,19.45,19.45,0,0,0,7.42,7.65,19.66,19.66,0,0,0,10,2.67A19.4,19.4,0,0,0,799.39,511.16Z" transform="translate(-22.06 -439.38)"/><path d="M840.86,518.59A27.78,27.78,0,0,1,831,507.65a36.11,36.11,0,0,1,0-31.56,27.65,27.65,0,0,1,9.91-11,25.66,25.66,0,0,1,14-4,23.46,23.46,0,0,1,11.9,3,22,22,0,0,1,7.93,7.43h.45l-.45-8.05V439.6h9.63v81.14h-9.18v-8.5h-.45a22.34,22.34,0,0,1-7.93,7.31,23.46,23.46,0,0,1-11.9,3A25.73,25.73,0,0,1,840.86,518.59Zm24.59-7.48a19.92,19.92,0,0,0,7-7.71,26.45,26.45,0,0,0,0-23.12,19.89,19.89,0,0,0-7-7.7,17.72,17.72,0,0,0-18.87,0,19.69,19.69,0,0,0-7.08,7.76,26.19,26.19,0,0,0,0,23,19.72,19.72,0,0,0,7.08,7.77,17.72,17.72,0,0,0,18.87,0Z" transform="translate(-22.06 -439.38)"/><path d="M905.17,520.06a18.65,18.65,0,0,1-7.7-6.86,18.26,18.26,0,0,1-2.72-9.91q0-9.18,6.91-14.34t17.45-5.15a39.74,39.74,0,0,1,9.69,1.13,24.85,24.85,0,0,1,6.85,2.61V484a13,13,0,0,0-4.53-10.37,16.93,16.93,0,0,0-11.44-3.91,19.3,19.3,0,0,0-9,2.1,16.36,16.36,0,0,0-6.46,5.84L897,472.24a23.17,23.17,0,0,1,9.35-8.16,29.41,29.41,0,0,1,13.2-2.95q11.79,0,18.53,6.18t6.74,16.83v36.6h-9.18v-8.27h-.45a20.7,20.7,0,0,1-7.48,7.14,21.65,21.65,0,0,1-11.22,2.94A25,25,0,0,1,905.17,520.06Zm21.31-8.5a18.86,18.86,0,0,0,6.68-6.69,17.61,17.61,0,0,0,2.49-9.17,23.57,23.57,0,0,0-6.68-2.95,30.26,30.26,0,0,0-8.39-1.13q-7.94,0-12,3.28a10.49,10.49,0,0,0-4,8.5,9.47,9.47,0,0,0,3.63,7.71,14.12,14.12,0,0,0,9.18,2.94A17.47,17.47,0,0,0,926.48,511.56Z" transform="translate(-22.06 -439.38)"/><path d="M313.18,521l-.23-26.9c0-3.2-.85-5.65-2.53-7.37a8.88,8.88,0,0,0-6.61-2.57V476a8.88,8.88,0,0,0,6.61-2.57c1.68-1.71,2.53-4.17,2.53-7.36v-7.59q0-8.65,5.43-13.85t14.7-5.2h2.72v8.18h-2.59a10.21,10.21,0,0,0-7.66,3,11.19,11.19,0,0,0-3,8.18v7.59a16,16,0,0,1-2.1,8.76,11.51,11.51,0,0,1-6.29,4.68v.47a11.6,11.6,0,0,1,6.29,4.61q2.1,3.23,2.1,8.83L322.25,521Z" transform="translate(-22.06 -439.38)"/><path d="M479.76,439.38l.11,20.1a14.63,14.63,0,0,1-2.1,8.32,11.49,11.49,0,0,1-6.29,4.43v.44a11.62,11.62,0,0,1,6.29,4.38q2.1,3.06,2.1,8.37v19.41a10.31,10.31,0,0,0,3,7.76,10.54,10.54,0,0,0,7.66,2.88h2.59v7.76h-2.72q-9.25,0-14.7-4.93t-5.43-13.14v-19.4c0-3-.85-5.36-2.53-7a9.16,9.16,0,0,0-6.61-2.44v-7.76a9.11,9.11,0,0,0,6.61-2.44c1.68-1.62,2.53-3.95,2.53-7l.46-19.77" transform="translate(-22.06 -439.38)"/><path d="M962.64,521.94l6-9.41a6.08,6.08,0,0,1-3.63-2.15,6.47,6.47,0,0,1-1.59-4.42,6.87,6.87,0,0,1,2.1-5,7.38,7.38,0,0,1,10.31,0,6.87,6.87,0,0,1,2.1,5,9,9,0,0,1-.79,3.68,25.94,25.94,0,0,1-2.38,4L967.29,525Zm2.66-53.66a7.26,7.26,0,0,1,5.16-12.41,6.87,6.87,0,0,1,5,2.1,7.38,7.38,0,0,1,0,10.31,6.87,6.87,0,0,1-5,2.1A7,7,0,0,1,965.3,468.28Z" transform="translate(-22.06 -439.38)"/></svg>