<?xml version="1.0" encoding="utf-8"?>
<!-- Generator: Adobe Illustrator 22.0.0, SVG Export Plug-In . SVG Version: 6.00 Build 0)  -->
<svg version="1.1" id="Layer_1" xmlns="http://www.w3.org/2000/svg" xmlns:xlink="http://www.w3.org/1999/xlink" x="0px" y="0px"
	 viewBox="0 0 955.9 85.6" style="enable-background:new 0 0 955.9 85.6;" xml:space="preserve">
<title>logo</title>
<path d="M146.6,74.9c-3-1.5-5.3-3.6-7-6.2c-1.6-2.6-2.5-5.6-2.5-9c0-5.5,2.1-9.9,6.3-13c4.2-3.1,9.4-4.7,15.8-4.7
	c3.1,0,6.1,0.3,8.8,1c2.7,0.7,4.8,1.5,6.2,2.4v-3.2c0-3.9-1.4-7-4.1-9.4c-2.7-2.4-6.2-3.5-10.4-3.5c-2.9,0-5.6,0.6-8.1,1.9
	c-2.5,1.3-4.4,3-5.8,5.3l-6.6-4.9c2.1-3.1,4.9-5.6,8.5-7.4c3.6-1.8,7.6-2.7,12-2.7c7.1,0,12.7,1.9,16.8,5.6
	c4.1,3.7,6.1,8.8,6.1,15.2v33.1h-8.3V68h-0.4c-1.5,2.5-3.8,4.7-6.8,6.5c-3,1.8-6.4,2.7-10.2,2.7C153,77.2,149.6,76.4,146.6,74.9z
	 M165.9,67.2c2.5-1.5,4.5-3.5,6.1-6.1c1.5-2.5,2.3-5.3,2.3-8.3c-1.6-1.1-3.7-2-6.1-2.7c-2.4-0.7-4.9-1-7.6-1c-4.8,0-8.4,1-10.8,3
	c-2.4,2-3.6,4.5-3.6,7.7c0,2.9,1.1,5.2,3.3,7c2.2,1.8,5,2.7,8.3,2.7C160.6,69.5,163.3,68.7,165.9,67.2z"/>
<path d="M194.6,23.2h8.3v7.7h0.4c1.4-2.6,3.7-4.8,6.9-6.6c3.1-1.8,6.5-2.7,10.1-2.7c6.3,0,11.1,1.8,14.4,5.5c3.3,3.7,5,8.6,5,14.9
	v33.6h-8.7V43.3c0-4.9-1.2-8.4-3.5-10.6c-2.3-2.2-5.5-3.3-9.5-3.3c-2.8,0-5.3,0.8-7.5,2.4c-2.2,1.6-4,3.6-5.2,6.2
	c-1.2,2.6-1.8,5.3-1.8,8.1v29.4h-8.7V23.2z"/>
<path d="M256.7,71.6c-3.3-3.7-5-8.9-5-15.5V23.2h8.7v31.6c0,5,1.1,8.7,3.4,11c2.3,2.3,5.3,3.5,9.1,3.5c2.9,0,5.6-0.8,7.8-2.4
	c2.3-1.6,4.1-3.6,5.3-6.2c1.3-2.5,1.9-5.2,1.9-8V23.2h8.7v52.3h-8.3v-7.6h-0.4c-1.4,2.6-3.7,4.8-6.9,6.6c-3.1,1.8-6.5,2.7-10.1,2.7
	C264.8,77.2,260,75.3,256.7,71.6z"/>
<path d="M353.5,74.9c-3-1.5-5.3-3.6-7-6.2c-1.6-2.6-2.5-5.6-2.5-9c0-5.5,2.1-9.9,6.3-13c4.2-3.1,9.4-4.7,15.8-4.7
	c3.1,0,6.1,0.3,8.8,1c2.7,0.7,4.8,1.5,6.2,2.4v-3.2c0-3.9-1.4-7-4.1-9.4c-2.7-2.4-6.2-3.5-10.4-3.5c-2.9,0-5.6,0.6-8.1,1.9
	c-2.5,1.3-4.4,3-5.8,5.3l-6.6-4.9c2.1-3.1,4.9-5.6,8.5-7.4c3.6-1.8,7.6-2.7,12-2.7c7.1,0,12.7,1.9,16.8,5.6
	c4.1,3.7,6.1,8.8,6.1,15.2v33.1h-8.3V68h-0.4c-1.5,2.5-3.8,4.7-6.8,6.5c-3,1.8-6.4,2.7-10.2,2.7C360,77.2,356.5,76.4,353.5,74.9z
	 M372.8,67.2c2.5-1.5,4.5-3.5,6.1-6.1c1.5-2.5,2.3-5.3,2.3-8.3c-1.6-1.1-3.7-2-6.1-2.7c-2.4-0.7-4.9-1-7.6-1c-4.8,0-8.4,1-10.8,3
	c-2.4,2-3.6,4.5-3.6,7.7c0,2.9,1.1,5.2,3.3,7c2.2,1.8,5,2.7,8.3,2.7C367.5,69.5,370.3,68.7,372.8,67.2z"/>
<path d="M401.5,2.1h8.7v46.2l24.6-25H446v0.4l-20.5,20.7l21,30.8v0.4h-10.4l-16.8-25.1l-9,9v16.1h-8.7V2.1z"/>
<path d="M495.5,71.6c-3.3-3.7-5-8.9-5-15.5V23.2h8.7v31.6c0,5,1.1,8.7,3.4,11c2.3,2.3,5.3,3.5,9.1,3.5c2.9,0,5.6-0.8,7.8-2.4
	c2.3-1.6,4.1-3.6,5.3-6.2c1.3-2.5,1.9-5.2,1.9-8V23.2h8.7v52.3h-8.3v-7.6h-0.4c-1.4,2.6-3.7,4.8-6.9,6.6c-3.1,1.8-6.5,2.7-10.1,2.7
	C503.6,77.2,498.8,75.3,495.5,71.6z"/>
<path d="M548.5,23.2h8.3v8.4h0.4c1-2.9,3-5.2,6-7.1c2.9-1.9,6-2.8,9.2-2.8c2.4,0,4.4,0.3,6.2,1v9.4c-2.2-1.1-4.7-1.6-7.4-1.6
	c-2.5,0-4.9,0.7-7,2.2c-2.1,1.4-3.8,3.4-5.1,5.8c-1.3,2.4-1.9,5-1.9,7.8v29.2h-8.7V23.2z"/>
<path d="M591.4,74.9c-3-1.5-5.3-3.6-7-6.2c-1.6-2.6-2.5-5.6-2.5-9c0-5.5,2.1-9.9,6.3-13c4.2-3.1,9.4-4.7,15.8-4.7
	c3.1,0,6.1,0.3,8.8,1c2.7,0.7,4.8,1.5,6.2,2.4v-3.2c0-3.9-1.4-7-4.1-9.4c-2.7-2.4-6.2-3.5-10.4-3.5c-2.9,0-5.6,0.6-8.1,1.9
	c-2.5,1.3-4.4,3-5.8,5.3l-6.6-4.9c2.1-3.1,4.9-5.6,8.5-7.4c3.6-1.8,7.6-2.7,12-2.7c7.1,0,12.7,1.9,16.8,5.6
	c4.1,3.7,6.1,8.8,6.1,15.2v33.1H619V68h-0.4c-1.5,2.5-3.8,4.7-6.8,6.5c-3,1.8-6.4,2.7-10.2,2.7C597.8,77.2,594.4,76.4,591.4,74.9z
	 M610.6,67.2c2.5-1.5,4.5-3.5,6.1-6.1c1.5-2.5,2.3-5.3,2.3-8.3c-1.6-1.1-3.7-2-6.1-2.7c-2.4-0.7-4.9-1-7.6-1c-4.8,0-8.4,1-10.8,3
	c-2.4,2-3.6,4.5-3.6,7.7c0,2.9,1.1,5.2,3.3,7c2.2,1.8,5,2.7,8.3,2.7C605.4,69.5,608.1,68.7,610.6,67.2z"/>
<g>
	<path d="M318.1,75.7l-0.2-24.4c0-2.9-0.8-5.1-2.3-6.7c-1.5-1.6-3.5-2.3-6-2.3V35c2.5,0,4.5-0.8,6-2.3c1.5-1.6,2.3-3.8,2.3-6.7v-6.9
		c0-5.2,1.6-9.4,4.9-12.5c3.3-3.1,7.7-4.7,13.3-4.7h2.5v7.4h-2.3c-2.8,0-5.1,0.9-6.9,2.8c-1.8,1.8-2.7,4.3-2.7,7.4v6.9
		c0,3.3-0.6,6-1.9,7.9c-1.3,2-3.2,3.4-5.7,4.2v0.4c2.5,0.8,4.4,2.2,5.7,4.2c1.3,1.9,1.9,4.6,1.9,8l-0.3,24.7H318.1z"/>
</g>
<g>
	<path d="M469,1.9l0.1,18.2c0,3.1-0.6,5.7-1.9,7.5c-1.3,1.9-3.2,3.2-5.7,4V32c2.5,0.8,4.4,2.1,5.7,4c1.3,1.8,1.9,4.4,1.9,7.6v17.6
		c0,2.9,0.9,5.3,2.7,7c1.8,1.7,4.1,2.6,6.9,2.6h2.3v7h-2.5c-5.6,0-10-1.5-13.3-4.5c-3.3-3-4.9-6.9-4.9-11.9V43.9
		c0-2.7-0.8-4.9-2.3-6.3c-1.5-1.5-3.5-2.2-6-2.2v-7c2.5,0,4.5-0.7,6-2.2c1.5-1.5,2.3-3.6,2.3-6.3l0.4-17.9"/>
</g>
<g>
	<path d="M52.5,23.4h8.2V31h0.4c1.5-2.6,3.7-4.8,6.7-6.6c3-1.8,6.1-2.6,9.5-2.6c3.8,0,7.1,0.9,9.9,2.7c2.8,1.8,4.8,4.3,6.1,7.3
		c1.8-3.1,4.3-5.5,7.3-7.3c3-1.8,6.5-2.7,10.5-2.7c6,0,10.5,1.8,13.5,5.4c3,3.6,4.5,8.6,4.5,14.8v33.3h-8.5v-32c0-4.8-1-8.3-3-10.5
		c-2-2.2-4.9-3.3-8.8-3.3c-2.6,0-4.9,0.7-7,2.2c-2.1,1.5-3.7,3.5-4.9,6c-1.2,2.5-1.8,5.2-1.8,8.1v29.3h-8.6V43.5c0-4.9-1-8.4-3-10.6
		c-2-2.2-4.9-3.3-8.6-3.3c-2.6,0-4.9,0.8-7,2.3c-2.1,1.5-3.7,3.6-4.9,6.1c-1.2,2.5-1.8,5.3-1.8,8.2v29.1h-8.6V23.4z"/>
</g>
<g>
	<path d="M665.1,2.2h8.6V48l24.4-24.8h11v0.4l-20.4,20.6l20.9,30.5v0.4h-10.3l-16.7-24.9l-9,9v16h-8.6V2.2z"/>
	<path d="M725.1,73.1c-4.1-2.4-7.2-5.8-9.5-10c-2.3-4.2-3.4-8.9-3.4-13.9s1.1-9.7,3.4-13.9c2.3-4.2,5.4-7.5,9.5-10
		c4.1-2.4,8.6-3.7,13.7-3.7s9.7,1.2,13.7,3.7c4.1,2.4,7.2,5.8,9.5,10c2.3,4.2,3.4,8.9,3.4,13.9s-1.1,9.7-3.4,13.9
		c-2.3,4.2-5.4,7.5-9.5,10c-4.1,2.4-8.6,3.7-13.7,3.7S729.2,75.5,725.1,73.1z M747.8,66.5c2.7-1.6,5-3.9,6.6-6.9
		c1.7-3,2.5-6.5,2.5-10.5c0-4-0.8-7.5-2.5-10.5c-1.7-3-3.9-5.3-6.6-6.9c-2.7-1.6-5.7-2.4-8.9-2.4c-3.2,0-6.2,0.8-9,2.4
		c-2.8,1.6-5,3.9-6.7,6.9c-1.7,3-2.5,6.5-2.5,10.5c0,4,0.8,7.5,2.5,10.5c1.7,3,3.9,5.3,6.7,6.9c2.8,1.6,5.8,2.4,9,2.4
		C742.1,68.9,745,68.1,747.8,66.5z"/>
	<path d="M785,73.2c-3.8-2.4-6.7-5.6-8.9-9.8c-2.2-4.2-3.3-8.9-3.3-14.2c0-5.2,1.1-9.9,3.3-14.1c2.2-4.2,5.1-7.5,8.9-9.9
		c3.8-2.4,8-3.6,12.6-3.6c4,0,7.6,0.9,10.7,2.7c3.1,1.8,5.5,4,7.1,6.7h0.4l-0.4-7.2V2.2h8.6v72.9h-8.2v-7.6h-0.4
		c-1.6,2.6-4,4.8-7.1,6.6c-3.1,1.8-6.7,2.7-10.7,2.7C793,76.7,788.8,75.5,785,73.2z M807.1,66.5c2.6-1.6,4.7-3.9,6.3-6.9
		c1.6-3,2.4-6.4,2.4-10.4c0-3.9-0.8-7.4-2.4-10.4c-1.6-3-3.7-5.3-6.3-6.9c-2.6-1.6-5.4-2.4-8.5-2.4c-3,0-5.8,0.8-8.4,2.4
		c-2.6,1.6-4.8,4-6.4,7c-1.6,3-2.4,6.5-2.4,10.3s0.8,7.3,2.4,10.3c1.6,3,3.7,5.3,6.4,7c2.6,1.6,5.5,2.4,8.4,2.4
		C801.7,68.9,804.5,68.1,807.1,66.5z"/>
	<path d="M842.8,74.5c-3-1.5-5.3-3.5-6.9-6.2c-1.6-2.6-2.4-5.6-2.4-8.9c0-5.5,2.1-9.8,6.2-12.9c4.1-3.1,9.4-4.6,15.7-4.6
		c3.1,0,6,0.3,8.7,1c2.7,0.7,4.7,1.5,6.2,2.3v-3.2c0-3.9-1.4-7-4.1-9.3c-2.7-2.3-6.1-3.5-10.3-3.5c-2.9,0-5.6,0.6-8,1.9
		c-2.4,1.3-4.4,3-5.8,5.2l-6.5-4.9c2-3.1,4.8-5.6,8.4-7.3c3.6-1.8,7.5-2.6,11.9-2.6c7.1,0,12.6,1.8,16.6,5.5c4,3.7,6.1,8.7,6.1,15.1
		v32.9h-8.2v-7.4h-0.4c-1.5,2.5-3.7,4.6-6.7,6.4c-3,1.8-6.3,2.6-10.1,2.6C849.1,76.7,845.8,76,842.8,74.5z M861.9,66.9
		c2.5-1.5,4.5-3.5,6-6c1.5-2.5,2.2-5.3,2.2-8.2c-1.6-1.1-3.6-2-6-2.6c-2.4-0.7-4.9-1-7.5-1c-4.7,0-8.3,1-10.7,3
		c-2.4,2-3.6,4.5-3.6,7.6c0,2.8,1.1,5.2,3.3,6.9c2.2,1.8,4.9,2.6,8.2,2.6C856.7,69.1,859.4,68.4,861.9,66.9z"/>
	<path d="M889.7,81.9l5.4-8.4c-1.2-0.2-2.3-0.8-3.3-1.9c-1-1.1-1.4-2.4-1.4-4c0-1.8,0.6-3.3,1.9-4.5c1.3-1.3,2.8-1.9,4.6-1.9
		c1.8,0,3.4,0.6,4.6,1.9c1.3,1.3,1.9,2.8,1.9,4.5c0,1.2-0.2,2.3-0.7,3.3c-0.5,1.1-1.2,2.3-2.1,3.6l-6.7,10.2L889.7,81.9z
		 M892.1,33.7c-1.3-1.3-1.9-2.8-1.9-4.6c0-1.8,0.6-3.4,1.9-4.6c1.3-1.3,2.8-1.9,4.6-1.9c1.8,0,3.3,0.6,4.5,1.9
		c1.3,1.3,1.9,2.8,1.9,4.6c0,1.8-0.6,3.4-1.9,4.6c-1.3,1.3-2.8,1.9-4.5,1.9C894.9,35.6,893.3,35,892.1,33.7z"/>
</g>
</svg>
