<svg id="Layer_1" data-name="Layer 1" xmlns="http://www.w3.org/2000/svg" viewBox="0 0 905.59 516.66"><title>show</title><path d="M650.48,752.58a61.62,61.62,0,0,1-9.08-.68l1.29-8.55c45,6.82,76.64-49,80.8-56.73V301.73c-28.29-57.79-85.13-49.24-87.55-48.85l-1.41-8.52c.65-.11,66.18-10.21,97.17,54.51l.43.88v389l-.46.92C730.3,692.35,699.44,752.58,650.48,752.58Z" transform="translate(-47.21 -241.67)"/><path d="M806.49,752.58c-49,0-79.82-60.23-81.18-63l-.46-.92v-389l.42-.88c31-64.72,96.52-54.62,97.18-54.51L821,252.88l.71-4.26-.7,4.26c-2.42-.39-59.27-8.94-87.55,48.85V686.62c4.15,7.72,35.84,63.52,80.8,56.73l1.29,8.55A61.86,61.86,0,0,1,806.49,752.58Z" transform="translate(-47.21 -241.67)"/><path d="M786.56,479.59,952.79,622.24v24.4L770.68,489.93V469.25L952.79,313v24Z" transform="translate(-47.21 -241.67)"/><path d="M281.86,464.24,424.51,298h24.4L292.2,480.13H271.52L115.22,298h24Z" transform="translate(-47.21 -241.67)"/><path d="M121.2,255.79H61.33V744.21H121.2v14.12h-74V241.67h74Z" transform="translate(-47.21 -241.67)"/><path d="M450.46,744.21h59.87V255.79H450.46V241.67h74V758.33h-74Z" transform="translate(-47.21 -241.67)"/></svg>